<?xml version="1.0" encoding="UTF-8"?>
<svg width="512px" height="512px" viewBox="0 0 512 512" version="1.1" xmlns="http://www.w3.org/2000/svg" xmlns:xlink="http://www.w3.org/1999/xlink">
    <!-- Generator: Sketch 52.1 (67048) - http://www.bohemiancoding.com/sketch -->
    <title>circle-xmark</title>
    <desc>Created with Sketch.</desc>
    <g id="Page-1" stroke="none" stroke-width="1" fill="none" fill-rule="evenodd">
        <g id="circle-xmark" fill="#DC3644" fill-rule="nonzero">
            <path d="M256,0 C114.837333,0 0,114.837333 0,256 C0,397.162667 114.837333,512 256,512 C397.162667,512 512,397.162667 512,256 C512,114.837333 397.162667,0 256,0 Z M335.082667,304.917333 C343.424,313.258667 343.424,326.741333 335.082667,335.082667 C330.922667,339.242667 325.461333,341.333333 320,341.333333 C314.538667,341.333333 309.077333,339.242667 304.917333,335.082667 L256,286.165333 L207.082667,335.082667 C202.922667,339.242667 197.461333,341.333333 192,341.333333 C186.538667,341.333333 181.077333,339.242667 176.917333,335.082667 C168.576,326.741333 168.576,313.258667 176.917333,304.917333 L225.834667,256 L176.917333,207.082667 C168.576,198.741333 168.576,185.258667 176.917333,176.917333 C185.258667,168.576 198.741333,168.576 207.082667,176.917333 L256,225.834667 L304.917333,176.917333 C313.258667,168.576 326.741333,168.576 335.082667,176.917333 C343.424,185.258667 343.424,198.741333 335.082667,207.082667 L286.165333,256 L335.082667,304.917333 Z" id="Shape"></path>
        </g>
    </g>
</svg>